<?xml version="1.0" encoding="UTF-8"?>
<svg
    width="800"
    height="300"
    viewBox="0 0 800 300"
    xmlns="http://www.w3.org/2000/svg"
    fill="none">

  <!-- ISX lettering -->
  <g fill="#ffffff">
    <!-- I -->
    <rect x="80" y="70" width="40" height="160" rx="6"/>

    <!-- S -->
    <path d="
      M200 90
      C200 60, 360 60, 360 110
      C360 150, 240 140, 240 170
      C240 210, 380 210, 380 180
      L380 200
      C380 260, 200 260, 200 190
      C200 150, 320 160, 320 120
      C320 80, 200 80, 200 110
      Z"/>

    <!-- X -->
    <path d="
      M460 70
      L520 150
      L460 230
      L500 230
      L560 160
      L620 230
      L660 230
      L600 150
      L660 70
      L620 70
      L560 140
      L500 70
      Z"/>
  </g>

</svg>
